<?xml version="1.0" encoding="UTF-8"?>
<svg width="110px" height="10px" viewBox="0 0 110 10" version="1.1" xmlns="http://www.w3.org/2000/svg" xmlns:xlink="http://www.w3.org/1999/xlink">
    <title>长箭头</title>
    <g id="页面-1" stroke="none" stroke-width="1" fill="none" fill-rule="evenodd">
        <g id="查物流-1" transform="translate(-133.000000, -315.000000)">
            <g id="卡片" transform="translate(16.000000, 194.000000)">
                <g id="地址信息" transform="translate(14.000000, 96.000000)">
                    <g id="长箭头" transform="translate(103.000000, 25.000000)">
                        <rect id="矩形" fill-opacity="0.01" fill="#FFFFFF" x="0" y="0" width="110" height="10"></rect>
                        <path d="M99.252725,2.30378835 C99.0348705,2.59739984 99.0590766,3.01406352 99.3253431,3.28033009 L102.987566,6.942 L5.74999528,6.94289322 C5.33578644,6.94289322 5,7.27867966 5,7.69289322 C5,8.10710678 5.33578644,8.44289322 5.75,8.44289322 L104.732502,8.44443421 C104.856248,8.46524469 105.020334,8.43663589 105.163125,8.35909659 C105.407085,8.23590013 105.568566,7.97873301 105.568566,7.69289322 C105.568566,7.43017534 105.432156,7.19061023 105.213038,7.05493073 L100.386003,2.21966991 C100.09311,1.9267767 99.6182364,1.9267767 99.3253431,2.21966991 L99.252725,2.30378835 Z" id="形状结合" fill="#D8D8D8" fill-rule="nonzero"></path>
                    </g>
                </g>
            </g>
        </g>
    </g>
</svg>