<?xml version="1.0" encoding="UTF-8"?>
<svg width="16px" height="16px" viewBox="0 0 16 16" version="1.1" xmlns="http://www.w3.org/2000/svg" xmlns:xlink="http://www.w3.org/1999/xlink">
    <title>箭头</title>
    <g id="页面-1" stroke="none" stroke-width="1" fill="none" fill-rule="evenodd">
        <g id="筛选" transform="translate(-325.000000, -287.000000)">
            <g id="输入1" transform="translate(61.000000, 243.000000)">
                <g id="箭头" transform="translate(264.000000, 44.000000)">
                    <rect id="矩形" fill-opacity="0.01" fill="#FFFFFF" x="0" y="0" width="16" height="16"></rect>
                    <path d="M13.207459,11.7633222 C12.982015,11.7633222 12.7565709,11.6881742 12.6062748,11.5378781 L8.4731335,6.65325654 C8.32283745,6.57810852 8.24768942,6.50296049 8.02224536,6.50296049 C7.94709733,6.50296049 7.72165326,6.57810852 7.64650523,6.65325654 L3.28791982,11.4627301 C2.98732772,11.7633222 2.53643958,11.7633222 2.23584748,11.5378781 C1.93525537,11.237286 1.93525537,10.7863979 2.16069946,10.4858058 L6.51928487,5.67633222 C6.89502499,5.22544408 7.49620919,5 8.09739339,5 C8.69857758,5 9.22461375,5.3005921 9.67550189,5.75148025 L13.8086432,10.5609538 C14.1092353,10.8615459 14.0340873,11.3124341 13.7334952,11.6130262 C13.5831992,11.6881742 13.3577551,11.7633222 13.207459,11.7633222 Z" id="路径" fill="#A8A8A8" fill-rule="nonzero" transform="translate(8.000000, 8.381661) scale(1, -1) translate(-8.000000, -8.381661) "></path>
                </g>
            </g>
        </g>
    </g>
</svg>