<?xml version="1.0" encoding="UTF-8"?>
<svg width="22px" height="22px" viewBox="0 0 22 22" version="1.1" xmlns="http://www.w3.org/2000/svg" xmlns:xlink="http://www.w3.org/1999/xlink">
    <title>验证码</title>
    <g id="页面-1" stroke="none" stroke-width="1" fill="none" fill-rule="evenodd">
        <g id="登录-2" transform="translate(-32.000000, -364.000000)">
            <g id="编组备份" transform="translate(32.000000, 348.000000)">
                <g id="验证码" transform="translate(0.000000, 16.000000)">
                    <rect id="框" fill="#FFFFFF" opacity="0" x="0" y="0" width="22" height="22"></rect>
                    <g transform="translate(3.333333, 2.000000)" fill="#C6C6C6" fill-rule="nonzero" id="形状结合">
                        <path d="M7.66666666,0 C7.73798449,0 7.80930232,0.0179999916 7.8627907,0.0630000149 L8.12131783,0.252000007 C8.13023256,0.261000011 9.29806201,1.089 11.0988372,1.809 C12.8550388,2.51099999 14.5577519,2.54699999 14.5755814,2.54700001 L15.0034884,2.556 C15.1817829,2.556 15.3333333,2.7 15.3333333,2.88000001 L15.3333333,10.161 C15.3333333,13.968 10.35,18 7.66666666,18 C4.98333332,18 0,13.968 0,10.152 L0,2.871 C0,2.691 0.142635663,2.556 0.329844957,2.54700001 L0.766666661,2.53800001 C0.78449611,2.53800001 2.48720929,2.502 4.24341086,1.80000001 C6.03527132,1.08000001 7.19418604,0.252000007 7.21201551,0.243000002 L7.47054263,0.0630000149 C7.524031,0.027000014 7.59534883,0 7.66666666,0 Z M7.66666667,1.33333333 C7.23168498,1.61960327 6.1790293,2.28160249 4.73489011,2.86308829 C3.33424908,3.43562816 1.98580586,3.60560093 1.33333333,3.65927654 L1.33333333,10.0556204 C1.33333333,13.0256709 5.57005495,16.6666667 7.66666667,16.6666667 C8.47573259,16.6666667 10.0590659,15.9867756 11.6076007,14.5017503 C13.1039377,13.0704006 14,11.4064566 14,10.0556204 L14,3.65927654 C13.3562271,3.60560093 11.9990843,3.43562816 10.5984432,2.86308829 C9.15430405,2.28160249 8.10164837,1.6285492 7.66666667,1.33333333 Z M10.8486472,6.96793531 C11.1089967,7.22828484 11.1089967,7.65039482 10.8486472,7.91074435 L7.07741102,11.6819805 C6.9732712,11.7861203 6.84324972,11.8486042 6.7080519,11.8694322 L6.60600649,11.8772427 C6.43539162,11.8772427 6.26477674,11.8121553 6.13460197,11.6819805 L4.48468615,10.0320647 C4.22433662,9.77171516 4.22433662,9.34960518 4.48468615,9.08925565 C4.74503568,8.82890612 5.16714567,8.82890612 5.42749519,9.08925565 L6.60542401,10.2676732 L9.90583814,6.96793531 C10.1661877,6.70758578 10.5882977,6.70758578 10.8486472,6.96793531 Z"></path>
                    </g>
                </g>
            </g>
        </g>
    </g>
</svg>