<?xml version="1.0" encoding="UTF-8"?>
<svg width="16px" height="16px" viewBox="0 0 16 16" version="1.1" xmlns="http://www.w3.org/2000/svg" xmlns:xlink="http://www.w3.org/1999/xlink">
    <title>icons/日期选择器/日期icon</title>
    <g id="页面-1" stroke="none" stroke-width="1" fill="none" fill-rule="evenodd">
        <g id="筛选" transform="translate(-325.000000, -154.000000)">
            <g id="时间选择1" transform="translate(61.000000, 111.000000)">
                <g id="输入框" transform="translate(0.000000, 32.000000)">
                    <g id="icons/日期选择器/日期icon" transform="translate(264.000000, 11.000000)">
                        <rect id="矩形" fill-opacity="0.01" fill="#FFFFFF" fill-rule="nonzero" x="0" y="0" width="16" height="16"></rect>
                        <path d="M11.2941176,1 C11.5962688,1 11.8412107,1.24494192 11.8412107,1.54709309 L11.841,2.207 L13.1176471,2.20789114 C14.1572419,2.20789114 15,3.05064926 15,4.09024409 L15,13.1176471 C15,14.1572419 14.1572419,15 13.1176471,15 L2.88235294,15 C1.84275812,15 1,14.1572419 1,13.1176471 L1,4.09024409 C1,3.05064926 1.84275812,2.20789114 2.88235294,2.20789114 L4.158,2.207 L4.15878927,1.54709309 C4.15878927,1.24494192 4.40373118,1 4.70588235,1 C5.00803352,1 5.25297544,1.24494192 5.25297544,1.54709309 L5.252,2.207 L10.747,2.207 L10.7470246,1.54709309 C10.7470246,1.24494192 10.9919665,1 11.2941176,1 Z M2.23504539,6.34043291 L2.23529412,12.9967207 C2.23529412,13.5165182 2.65667318,13.9378972 3.17647059,13.9378972 L3.17647059,13.9378972 L12.8235294,13.9378972 C13.3433268,13.9378972 13.7647059,13.5165182 13.7647059,12.9967207 L13.7647059,12.9967207 L13.764,6.354 L2.35728742,6.35449612 C2.31522643,6.35449612 2.27430174,6.34963104 2.23504539,6.34043291 Z M5.40741847,11.3844464 C5.70220487,11.3844464 5.94117647,11.623418 5.94117647,11.9182044 C5.94117647,12.2129908 5.70220487,12.4519624 5.40741847,12.4519624 L4.00434624,12.4519624 C3.70955983,12.4519624 3.47058824,12.2129908 3.47058824,11.9182044 C3.47058824,11.623418 3.70955983,11.3844464 4.00434624,11.3844464 L5.40741847,11.3844464 Z M8.70153611,11.3844464 C8.99632252,11.3844464 9.23529412,11.623418 9.23529412,11.9182044 C9.23529412,12.2129908 8.99632252,12.4519624 8.70153611,12.4519624 L7.29846389,12.4519624 C7.00367748,12.4519624 6.76470588,12.2129908 6.76470588,11.9182044 C6.76470588,11.623418 7.00367748,11.3844464 7.29846389,11.3844464 L8.70153611,11.3844464 Z M11.9956538,11.3844464 C12.2904402,11.3844464 12.5294118,11.623418 12.5294118,11.9182044 C12.5294118,12.2129908 12.2904402,12.4519624 11.9956538,12.4519624 L10.5925815,12.4519624 C10.2977951,12.4519624 10.0588235,12.2129908 10.0588235,11.9182044 C10.0588235,11.623418 10.2977951,11.3844464 10.5925815,11.3844464 L11.9956538,11.3844464 Z M5.40741847,8.97407735 C5.70220487,8.97407735 5.94117647,9.21304895 5.94117647,9.50783536 C5.94117647,9.80262176 5.70220487,10.0415934 5.40741847,10.0415934 L4.00434624,10.0415934 C3.70955983,10.0415934 3.47058824,9.80262176 3.47058824,9.50783536 C3.47058824,9.21304895 3.70955983,8.97407735 4.00434624,8.97407735 L5.40741847,8.97407735 Z M8.70153611,8.97407735 C8.99632252,8.97407735 9.23529412,9.21304895 9.23529412,9.50783536 C9.23529412,9.80262176 8.99632252,10.0415934 8.70153611,10.0415934 L7.29846389,10.0415934 C7.00367748,10.0415934 6.76470588,9.80262176 6.76470588,9.50783536 C6.76470588,9.21304895 7.00367748,8.97407735 7.29846389,8.97407735 L8.70153611,8.97407735 Z M11.9956538,8.97407735 C12.2904402,8.97407735 12.5294118,9.21304895 12.5294118,9.50783536 C12.5294118,9.80262176 12.2904402,10.0415934 11.9956538,10.0415934 L10.5925815,10.0415934 C10.2977951,10.0415934 10.0588235,9.80262176 10.0588235,9.50783536 C10.0588235,9.21304895 10.2977951,8.97407735 10.5925815,8.97407735 L11.9956538,8.97407735 Z M4.158,3.269 L3.17647059,3.26999393 C2.65667318,3.26999393 2.23529412,3.69137298 2.23529412,4.2111704 L2.23529412,4.2111704 L2.23504539,5.30104333 C2.27430174,5.2918452 2.31522643,5.28698011 2.35728742,5.28698011 L13.764,5.286 L13.7647059,4.2111704 C13.7647059,3.72850137 13.4013739,3.33069307 12.9332905,3.27632591 L12.8235294,3.26999393 L11.841,3.269 L11.8412107,3.66673233 C11.8412107,3.9688835 11.5962688,4.21382541 11.2941176,4.21382541 C10.9919665,4.21382541 10.7470246,3.9688835 10.7470246,3.66673233 L10.747,3.269 L5.252,3.269 L5.25297544,3.66673233 C5.25297544,3.9688835 5.00803352,4.21382541 4.70588235,4.21382541 C4.40373118,4.21382541 4.15878927,3.9688835 4.15878927,3.66673233 L4.158,3.269 Z" id="Combined-Shape" fill="#A6ACB5"></path>
                    </g>
                </g>
            </g>
        </g>
    </g>
</svg>