<?xml version="1.0" encoding="UTF-8"?>
<svg width="66px" height="66px" viewBox="0 0 66 66" version="1.1" xmlns="http://www.w3.org/2000/svg" xmlns:xlink="http://www.w3.org/1999/xlink">
    <title>icon-test</title>
    <g id="页面-1" stroke="none" stroke-width="1" fill="none" fill-rule="evenodd">
        <g id="我的" transform="translate(-16.000000, -112.000000)" fill-rule="nonzero">
            <g id="icon-test" transform="translate(16.000000, 112.000000)">
                <path d="M32.9997314,0 C14.7756103,0 0,14.7758789 0,33 C0,44.2247803 5.60661621,54.1392822 14.1708252,60.1009277 C15.8425781,54.2783936 20.0720459,49.8947754 25.8263672,47.8975342 C26.0406199,47.8232422 26.2561214,47.7526021 26.4727783,47.6856445 C26.5342773,47.6665772 26.5955078,47.6464356 26.6575439,47.6276367 C27.2205046,47.4591274 27.7902457,47.314161 28.3652832,47.1931152 C28.4428955,47.1767334 28.521582,47.1622314 28.5997314,47.1466553 C29.1187527,47.0425718 29.6414495,46.95774 30.166748,46.892334 C30.2556396,46.8810547 30.3439941,46.8687012 30.4331543,46.8584961 C30.7350301,46.8233385 31.0375713,46.7941499 31.3406005,46.7709472 L32.5359375,46.7709472 C32.6500732,46.7787353 32.7717285,46.7787353 32.8936523,46.7709472 L33.0002685,46.7709472 C24.5910156,46.7709472 17.7466308,40.0890381 17.4761963,31.7455811 C17.4667969,31.7396728 17.4573974,31.7348388 17.447998,31.7289307 C16.9133057,21.7319824 25.9421142,15.586377 32.4908203,15.7099121 C32.6602783,15.7042725 32.8294678,15.6970215 33.0002685,15.6970215 C33.1624756,15.6970215 33.3228027,15.7042725 33.4833984,15.7091065 C35.3777832,15.6768799 37.4754639,16.1656494 39.4912354,17.1182129 C40.8304291,17.7355377 42.0749473,18.5403195 43.1873535,19.5083496 C46.4492187,22.284668 48.8184082,26.4730469 48.5372314,31.7286621 L48.5246093,31.7361817 C48.2590088,40.0842041 41.4130127,46.7706787 33.0002685,46.7706787 L34.6749756,46.7706787 C34.9775592,46.7938682 35.2796531,46.8230569 35.5810791,46.8582275 C35.6713135,46.8684326 35.7602051,46.8807861 35.8499023,46.892334 C36.1594029,46.9304876 36.4679674,46.9758858 36.7753418,47.0284912 C36.9880371,47.0644775 37.1988525,47.1036866 37.4083252,47.145581 C37.4891602,47.1616943 37.5702637,47.1764648 37.650293,47.1936524 C38.2227787,47.3142628 38.7900076,47.4586011 39.3505127,47.626294 C39.4171142,47.6464356 39.4829101,47.6679199 39.5495117,47.6885986 C39.7611327,47.7543945 39.970874,47.8228759 40.1787353,47.8951172 C45.9311767,49.8907471 50.1622558,54.2730225 51.8391113,60.0942138 C60.3976806,54.1320312 66,44.2207519 66,33 C66,14.7758789 51.2241211,0 32.9997314,0 Z" id="路径" fill="#B5D5FF"></path>
                <path d="M48.5243408,31.7361817 C44.4151855,34.3008789 33.6399658,30.591333 30.4382568,24.9369141 C27.4524658,30.1745361 22.393164,34.8135498 17.4759277,31.7453125 C17.7463622,40.0887695 24.5904785,46.7706787 33,46.7706787 C41.4124756,46.7706787 48.2584717,40.0842041 48.5243408,31.7361817 Z M39.4909668,17.1182129 C40.8224682,17.7494308 42.0651646,18.5530345 43.1870849,19.5083496 C42.0746611,18.5403428 40.8301465,17.7355634 39.4909668,17.1182129 Z M33.4831299,15.7251026 C33.3222656,15.7176026 33.162207,15.7063526 33,15.7063526 C32.8291992,15.7063526 32.6600098,15.7176026 32.4905517,15.7263526 C32.653833,15.7313526 32.8171143,15.7367693 32.9774414,15.7538526 C33.1434082,15.7359359 33.3131347,15.7292693 33.4831299,15.7251026 Z" id="形状" fill="#FCE9EA"></path>
                <path d="M28.3650146,47.2234318 C28.442627,47.1980151 28.5213135,47.1755151 28.5994629,47.1513484 C28.5213135,47.1755151 28.442627,47.1984317 28.3650146,47.2234318 Z M35.580542,46.8665959 C35.6707764,46.8824292 35.759668,46.9015959 35.8493652,46.9195126 C35.7596679,46.9015959 35.6707764,46.8824293 35.580542,46.8665959 Z M26.4725098,47.7191455 C26.5340088,47.6895622 26.5952393,47.6583122 26.6572753,47.6291455 C26.5952392,47.6583122 26.5342773,47.6895622 26.4725098,47.7191455 Z M37.4080566,47.1500984 C37.488623,47.1750984 37.5699951,47.1984317 37.6500244,47.2246818 C37.5699951,47.1980151 37.4888916,47.1746818 37.4080566,47.1500984 Z M39.3502441,47.6268864 C39.4168457,47.6581364 39.4826416,47.6914697 39.5492432,47.723553 C39.4829101,47.6914697 39.4171143,47.6581363 39.3502441,47.6268864 Z M40.1784668,47.8951172 L40.3162354,47.9439941 C40.1407391,48.4419373 39.9145002,48.9205126 39.6410889,49.372168 C40.7461914,51.0739991 40.4687744,58.4947022 38.8080322,57.3219238 L35.900122,55.2817139 L32.9997314,53.2415039 L33.1898681,53.1074951 C33.1264893,53.1091064 33.0633789,53.1123291 32.9997314,53.1123291 C32.9333984,53.1123291 32.8678711,53.1088378 32.8018066,53.1072266 L32.9919434,53.2415039 L30.0915527,55.2817139 L27.1836426,57.3219238 C25.513501,58.4968506 25.2368896,51.0487548 26.3532715,49.3638428 C26.0827615,48.9156665 25.8586143,48.4410973 25.6843017,47.9474854 C25.7315673,47.9305664 25.7785644,47.913916 25.82583,47.8975342 C20.0715087,49.895044 15.842041,54.2786621 14.170288,60.1009277 C19.510498,63.8185303 25.9998535,66 32.9994628,66 C40.0033691,66 46.4962158,63.8158447 51.8385742,60.0942138 C50.1619873,54.2730224 45.9309082,49.8904785 40.1784668,47.8951172 L40.1784668,47.8951172 Z M30.1664795,46.9191699 C30.2553711,46.9016699 30.3437256,46.8825032 30.4328857,46.8666699 C30.343457,46.8825032 30.2553711,46.9016699 30.1664795,46.9191699 Z" id="形状" fill="#7F89FF"></path>
                <path d="M26.35354,49.3638428 C26.5753662,49.0289551 26.8519775,48.920459 27.1839111,49.153833 L30.0918212,51.1940429 L32.8018066,53.1074951 C32.8678711,53.1091064 32.9333985,53.1125977 32.9997314,53.1125977 C33.0633789,53.1125977 33.1262207,53.109375 33.1898681,53.1077637 L35.9003906,51.1940429 L38.8083007,49.153833 C39.1418457,48.9183105 39.4189941,49.0305664 39.6413574,49.372168 C39.9147687,48.9205126 40.1410076,48.4419373 40.3165039,47.9439941 L40.1787353,47.8951172 C39.9701187,47.8228973 39.7603502,47.7540488 39.5495117,47.6885986 C39.4829101,47.6679199 39.4171142,47.6464355 39.3505127,47.626294 C38.7900076,47.4586011 38.2227787,47.3142628 37.650293,47.1936524 C37.5699951,47.1767334 37.4886231,47.1616944 37.4083252,47.145581 C37.1013806,47.0842906 36.7931919,47.029404 36.4839599,46.9809571 C36.2730327,46.9484492 36.0616593,46.9189053 35.8499023,46.892334 C35.760205,46.8807861 35.6713135,46.8684327 35.5810791,46.8582275 C35.2796531,46.8230569 34.9775592,46.7938682 34.6749756,46.7706787 L32.8936523,46.7706787 C32.7717285,46.7784668 32.6500732,46.7784668 32.5359375,46.7706787 L31.3406005,46.7706787 C31.0375713,46.7938813 30.7350302,46.82307 30.4331543,46.8582275 C30.3437256,46.8684326 30.2556396,46.8807861 30.166748,46.8920654 C29.8572559,46.9308361 29.5486177,46.9761424 29.24104,47.0279541 C29.0256591,47.0644775 28.8118896,47.1039551 28.5997314,47.1463867 C28.521582,47.1619629 28.443164,47.1764648 28.3652832,47.1928467 C27.7902457,47.3138925 27.2205046,47.4588589 26.6575439,47.6273681 C26.5955078,47.6458984 26.5345459,47.6663086 26.4727783,47.685376 C26.208366,47.7672499 25.9456641,47.8545486 25.6848388,47.9472168 C25.8589452,48.4409532 26.0830074,48.9156232 26.35354,49.3638428 L26.35354,49.3638428 Z" id="路径" fill="#FEFEFE"></path>
                <path d="M38.8083007,49.1535645 L35.9003906,51.1937744 L33.1898681,53.1074951 L32.9997314,53.2415039 L35.900122,55.2817139 L38.8080322,57.3219238 C40.4687744,58.4947021 40.7461914,51.073999 39.6410889,49.372168 C39.4189942,49.0302979 39.1418457,48.918042 38.8083007,49.1535645 L38.8083007,49.1535645 Z M27.1839111,49.1535645 C26.8519775,48.9201905 26.5753662,49.0286865 26.35354,49.3635742 C25.2371582,51.0482178 25.5137695,58.496582 27.1839111,57.3216553 L30.0918212,55.2814453 L32.9922119,53.2412353 L32.8020752,53.106958 L30.0920898,51.1935059 L27.1839111,49.1535645 L27.1839111,49.1535645 Z" id="形状" fill="#585DF9"></path>
                <path d="M30.4382568,24.9369141 C33.6399658,30.591333 44.4151855,34.3008789 48.5243408,31.7361817 L48.5369629,31.7286621 C48.8181396,26.4727783 46.4492187,22.2843994 43.1870849,19.5083496 C42.0652522,18.5529168 40.8225396,17.7493027 39.4909668,17.1182129 C37.4751953,16.1656494 35.3775146,15.6768799 33.4831299,15.7091065 C33.3131347,15.7120605 33.1434082,15.7160889 32.9771728,15.7273682 C33.5148193,17.6308838 32.4440918,21.4185791 30.4382568,24.9369141 L30.4382568,24.9369141 Z" id="路径" fill="#F79D70"></path>
                <path d="M30.4382568,24.9369141 C32.4440917,21.4185791 33.5148193,17.6308838 32.9771728,15.7273682 C32.8150442,15.7175084 32.6526995,15.7115984 32.4902832,15.7096436 C25.9418457,15.5861084 16.9130371,21.7317138 17.4474609,31.7286621 C17.4568603,31.7345703 17.4662598,31.7394043 17.4756592,31.7453125 C22.393164,34.8135498 27.4524658,30.1745361 30.4382568,24.9369141 L30.4382568,24.9369141 Z" id="路径" fill="#FBB077"></path>
            </g>
        </g>
    </g>
</svg>