<?xml version="1.0" encoding="UTF-8"?>
<svg width="18px" height="18px" viewBox="0 0 18 18" version="1.1" xmlns="http://www.w3.org/2000/svg" xmlns:xlink="http://www.w3.org/1999/xlink">
    <title>历史</title>
    <g id="页面-1" stroke="none" stroke-width="1" fill="none" fill-rule="evenodd">
        <g id="查物流" transform="translate(-307.000000, -105.000000)">
            <g id="搜索" transform="translate(0.000000, 88.000000)">
                <g id="历史" transform="translate(307.000000, 17.000000)">
                    <rect id="矩形" fill-opacity="0.01" fill="#FFFFFF" x="0" y="0" width="18" height="18"></rect>
                    <g id="lishixiao" transform="translate(1.000000, 1.000000)" fill="#666666" fill-rule="nonzero">
                        <path d="M8,14.6666667 C11.682,14.6666667 14.6666667,11.682 14.6666667,8 C14.6666667,4.318 11.682,1.33333333 8,1.33333333 C4.318,1.33333333 1.33333333,4.318 1.33333333,8 C1.33333333,11.682 4.318,14.6666667 8,14.6666667 Z M8,16 C3.582,16 0,12.418 0,8 C0,3.582 3.582,0 8,0 C12.418,0 16,3.582 16,8 C16,12.418 12.418,16 8,16 Z M8.66666667,8.39266667 L8.66666667,4.66466667 C8.66666667,4.302 8.368,4 8,4 C7.62933333,4 7.33331943,4.29733333 7.33331943,4.66466667 L7.33331943,8.66866667 C7.33219679,8.84340827 7.40082587,9.01138152 7.524,9.13533333 L9.41866667,11.03 C9.54350715,11.1540817 9.7126226,11.2233381 9.88863581,11.2224706 C10.064649,11.2215867 10.233067,11.1506511 10.3566667,11.0253333 C10.6151234,10.7668246 10.6172051,10.3484009 10.3613333,10.0873333 L8.66666667,8.39266667 Z" id="形状"></path>
                    </g>
                </g>
            </g>
        </g>
    </g>
</svg>