<?xml version="1.0" encoding="UTF-8"?>
<svg width="24px" height="24px" viewBox="0 0 24 24" version="1.1" xmlns="http://www.w3.org/2000/svg" xmlns:xlink="http://www.w3.org/1999/xlink">
    <title>查物流-未选</title>
    <g id="页面-1" stroke="none" stroke-width="1" fill="none" fill-rule="evenodd">
        <g id="我的" transform="translate(-95.000000, -739.000000)">
            <g id="标签栏" transform="translate(0.000000, 729.000000)">
                <g id="查物流-未选" transform="translate(95.000000, 10.000000)">
                    <rect id="矩形备份-2" fill-opacity="0.01" fill="#FFFFFF" x="0" y="0" width="24" height="24"></rect>
                    <g id="wuliu" transform="translate(1.000000, 2.000000)" fill="#565656" fill-rule="nonzero">
                        <path d="M19.8698594,0 C20.9981667,0 21.9169108,0.86968724 21.9946687,1.97763871 L22,2.13014055 L22,15.6095783 C22,16.7926578 21.077922,17.7556959 19.9253244,17.8372019 L19.7667881,17.8427902 L18.5757418,17.8427902 C18.5727902,17.8522774 18.5697853,17.8617403 18.5667274,17.8711786 C18.3043606,18.9322894 17.3216857,19.7334839 16.158742,19.7334839 C14.9820184,19.7334839 14.0103684,18.9131901 13.7516454,17.8329926 L13.7270953,17.837064 L13.7084852,17.8427902 L8.6725174,17.8429716 C8.42150615,18.918238 7.43183922,19.7334839 6.25874196,19.7334839 C5.08310632,19.7334839 4.11216513,18.9147061 3.8523648,17.8359879 L3.84799584,17.8198855 L3.79502863,17.8313378 L3.79502863,17.8313378 L3.73347215,17.8427902 L2.23321187,17.8427902 C1.0501324,17.8427902 0.0870942887,16.9207122 0.00558828899,15.7681146 L0,15.6095783 L0,9.32222801 C0,8.7826942 0.162878131,8.26125796 0.472547663,7.82226621 L0.595523165,7.66163457 L3.52732952,4.11140031 C3.98924171,3.55500607 4.64361733,3.21994476 5.34931652,3.16796506 L5.54294638,3.16085372 L7.71889641,3.16085372 L7.71889641,2.14159292 C7.71889641,1.01328565 8.59906181,0.0840634161 9.70792443,0.00539438844 L9.86048933,0 L19.8698594,0 Z M16.1707444,16.3 C15.6210307,16.3 15.162936,16.7466424 15.162936,17.3078084 C15.162936,17.8575221 15.6095783,18.3156169 16.1707444,18.3156169 C16.7319105,18.3156169 17.1785528,17.8575221 17.1785528,17.3078084 C17.1785528,16.7580947 16.7319105,16.3 16.1707444,16.3 Z M6.2644456,16.3 C5.71473191,16.3 5.25663717,16.7466424 5.25663717,17.3078084 C5.25663717,17.8575221 5.70327954,18.3156169 6.2644456,18.3156169 C6.82561166,18.3156169 7.2837064,17.8575221 7.27225403,17.3078084 C7.27225403,16.7580947 6.81415929,16.3 6.2644456,16.3 Z M7.71859903,4.8 L5.52717391,4.8 C5.20591787,4.8 4.89613527,4.93768116 4.68961353,5.19009662 L4.68961353,5.19009662 L1.75241546,8.7468599 C1.59178744,8.94190821 1.5,9.18285024 1.5,9.4352657 L1.5,9.4352657 L1.5,15.7341787 C1.5,16.1128019 1.80978261,16.434058 2.19987923,16.434058 L2.19987923,16.434058 L3.72584541,16.434058 C3.7602657,16.434058 3.79468599,16.4455314 3.84057971,16.4570048 C4.16183575,15.4129227 5.11413043,14.6556763 6.26147343,14.6556763 C7.397343,14.6556763 8.34963768,15.4014493 8.67089372,16.434058 L8.67089372,16.434058 L13.7192029,16.434058 C13.7421498,16.434058 13.7536232,16.4455314 13.7650966,16.4455314 C14.0978261,15.4129227 15.0501208,14.6556763 16.1859903,14.6556763 C17.3218599,14.6556763 18.2741546,15.4014493 18.5954106,16.434058 L18.5954106,16.434058 L19.7886473,16.434058 C20.1672705,16.434058 20.4885266,16.1242754 20.5,15.7341787 L20.5,15.7341787 L20.5,11.4890097 L9.86413043,11.4890097 C8.68236715,11.4890097 7.71859903,10.5252415 7.71859903,9.34347826 L7.71859903,9.34347826 L7.71859903,4.8 Z M19.755102,1.78 L9.94489796,1.78 C9.61938776,1.78 9.35,2.04482759 9.35,2.36482759 L9.35,2.36482759 L9.35,9.19517241 C9.35,9.51517241 9.61938776,9.78 9.94489796,9.78 L9.94489796,9.78 L20.35,9.78 L20.35,2.36482759 C20.35,2.04482759 20.0806122,1.78 19.755102,1.78 L19.755102,1.78 Z" id="形状结合"></path>
                        <path d="M6.26810711,7.63342758 C6.69355392,7.97085091 6.76690682,8.57234469 6.44415406,9.01246208 L4.87440202,11.0516727 C4.68368448,11.3010725 4.39027289,11.4331078 4.09686129,11.4331078 C3.89147317,11.4331078 3.67141448,11.3597549 3.49536752,11.2277196 C3.0699207,10.8902963 2.9965678,10.2888025 3.31932056,9.84868513 L4.8890726,7.80947454 C5.22649594,7.38402772 5.84266029,7.31067482 6.26810711,7.63342758 Z" id="路径"></path>
                    </g>
                </g>
            </g>
        </g>
    </g>
</svg>