<?xml version="1.0" encoding="UTF-8"?>
<svg width="24px" height="24px" viewBox="0 0 24 24" version="1.1" xmlns="http://www.w3.org/2000/svg" xmlns:xlink="http://www.w3.org/1999/xlink">
    <title>查物流-选中</title>
    <g id="页面-1" stroke="none" stroke-width="1" fill="none" fill-rule="evenodd">
        <g id="查物流" transform="translate(-95.000000, -1147.000000)">
            <g id="标签栏" transform="translate(0.000000, 1137.000000)">
                <g id="查物流-选中" transform="translate(95.000000, 10.000000)">
                    <rect id="矩形备份-2" fill-opacity="0.01" fill="#FFFFFF" x="0" y="0" width="24" height="24"></rect>
                    <g id="wuliu" transform="translate(1.000000, 2.000000)" fill-rule="nonzero">
                        <path d="M19.8698594,0 L9.86048933,0 C8.68089537,0 7.71889641,0.961998959 7.71889641,2.14159292 L7.71889641,3.16085372 L5.54294638,3.16085372 C4.76418532,3.16085372 4.03123373,3.50442478 3.52732952,4.11140031 L0.595523165,7.66163457 C0.206142634,8.13118168 0,8.71525247 0,9.32222801 L0,15.6095783 C0,16.8349818 0.996356065,17.8427902 2.23321187,17.8427902 L3.73347215,17.8427902 C3.77928162,17.8427902 3.81363873,17.8198855 3.84799584,17.8198855 C4.16866216,18.862051 5.11920875,19.6179073 6.2644456,19.6179073 C7.39823009,19.6179073 8.34877668,18.862051 8.669443,17.8427902 L13.7084852,17.8427902 C13.7199375,17.8427902 13.7313899,17.8313378 13.7542946,17.8313378 C14.074961,18.862051 15.0255075,19.6179073 16.1707444,19.6179073 C17.3045289,19.6179073 18.2550755,18.8735034 18.5757418,17.8427902 L19.7667881,17.8427902 C20.9921916,17.8427902 22,16.8464341 22,15.6095783 L22,2.13014055 C22,0.95054659 21.0494534,0 19.8698594,0 L19.8698594,0 Z" id="路径备份" fill="#307EFF"></path>
                        <path d="M6.25874196,19.7334839 C4.88076064,19.7334839 3.784,18.6086012 3.784,17.258742 C3.784,15.8807606 4.90888271,14.784 6.25874196,14.784 C7.60860122,14.784 8.73348393,15.9088827 8.73348393,17.258742 C8.761606,18.6086012 7.63672328,19.7334839 6.25874196,19.7334839 Z" id="路径" fill="#A4C6FF"></path>
                        <path d="M16.158742,19.7334839 C14.7807606,19.7334839 13.684,18.6086012 13.684,17.258742 C13.684,15.8807606 14.8088827,14.784 16.158742,14.784 C17.5086012,14.784 18.6334839,15.9088827 18.6334839,17.258742 C18.661606,18.6086012 17.5367233,19.7334839 16.158742,19.7334839 Z" id="路径" fill="#A4C6FF"></path>
                        <path d="M9.35,2.36482759 C9.35,2.04482759 9.61938776,1.78 9.94489796,1.78 L19.755102,1.78 C20.0806122,1.78 20.35,2.04482759 20.35,2.36482759 L20.35,9.78 L9.94489796,9.78 C9.61938776,9.78 9.35,9.51517241 9.35,9.19517241 L9.35,2.36482759 Z" id="路径" fill="#A4C6FF"></path>
                        <path d="M19.7886473,16.434058 L18.5954106,16.434058 C18.2741546,15.4014493 17.3218599,14.6556763 16.1859903,14.6556763 C15.0501208,14.6556763 14.0978261,15.4129227 13.7650966,16.4455314 C13.7536232,16.4455314 13.7421498,16.434058 13.7192029,16.434058 L8.68236715,16.434058 L8.67089372,16.434058 C8.34963768,15.4014493 7.397343,14.6556763 6.26147343,14.6556763 C5.11413043,14.6556763 4.16183575,15.4129227 3.84057971,16.4570048 C3.79468599,16.4455314 3.7602657,16.434058 3.72584541,16.434058 L2.19987923,16.434058 C1.80978261,16.434058 1.5,16.1128019 1.5,15.7341787 L1.5,9.4352657 C1.5,9.18285024 1.59178744,8.94190821 1.75241546,8.7468599 L4.68961353,5.19009662 C4.89613527,4.93768116 5.20591787,4.8 5.52717391,4.8 L7.71859903,4.8 L7.71859903,9.34347826 C7.71859903,10.5252415 8.68236715,11.4890097 9.86413043,11.4890097 L20.5,11.4890097 L20.5,15.7341787 C20.4885266,16.1242754 20.1672705,16.434058 19.7886473,16.434058 L19.7886473,16.434058 Z" id="路径" fill="#307EFF"></path>
                        <path d="M6.26810711,7.63342758 C6.69355392,7.97085091 6.76690682,8.57234469 6.44415406,9.01246208 L4.87440202,11.0516727 C4.68368448,11.3010725 4.39027289,11.4331078 4.09686129,11.4331078 C3.89147317,11.4331078 3.67141448,11.3597549 3.49536752,11.2277196 C3.0699207,10.8902963 2.9965678,10.2888025 3.31932056,9.84868513 L4.8890726,7.80947454 C5.22649594,7.38402772 5.84266029,7.31067482 6.26810711,7.63342758 Z" id="路径" fill="#A4C6FF"></path>
                    </g>
                </g>
            </g>
        </g>
    </g>
</svg>