<?xml version="1.0" encoding="UTF-8"?>
<svg width="32px" height="32px" viewBox="0 0 32 32" version="1.1" xmlns="http://www.w3.org/2000/svg" xmlns:xlink="http://www.w3.org/1999/xlink">
    <title>提货中-1</title>
    <defs>
        <filter color-interpolation-filters="auto" id="filter-1">
            <feColorMatrix in="SourceGraphic" type="matrix" values="0 0 0 0 0.788235 0 0 0 0 0.788235 0 0 0 0 0.788235 0 0 0 1.000000 0"></feColorMatrix>
        </filter>
    </defs>
    <g id="页面-1" stroke="none" stroke-width="1" fill="none" fill-rule="evenodd">
        <g id="设计规范" transform="translate(-610.000000, -2543.000000)">
            <g id="编组-16" transform="translate(340.000000, 2465.000000)">
                <g id="提货中-1" transform="translate(286.000000, 94.000000) scale(-1, 1) translate(-286.000000, -94.000000) translate(270.000000, 78.000000)">
                    <rect id="矩形" fill-opacity="0.01" fill="#FFFFFF" x="0" y="0" width="32" height="32"></rect>
                    <path d="M16,2 C23.7319865,2 30,8.2680135 30,16 C30,23.7319865 23.7319865,30 16,30 C8.2680135,30 2,23.7319865 2,16 C2,8.2680135 8.2680135,2 16,2 Z M16,3 C8.82029825,3 3,8.82029825 3,16 C3,23.1797017 8.82029825,29 16,29 C23.1797017,29 29,23.1797017 29,16 C29,8.82029825 23.1797017,3 16,3 Z" id="矩形" fill="#C9C9C9" fill-rule="nonzero"></path>
                    <g filter="url(#filter-1)" id="编组-5">
                        <g transform="translate(9.000000, 10.000000)">
                            <path d="M13.3973798,1.76741251 L13.346308,1.78930044 L11.6463457,2.83262494 C11.536906,2.89828872 11.4712423,3.00772835 11.4493543,3.13905591 C11.4274664,3.25579152 11.4420584,3.37982311 11.5004262,3.48196676 C11.5004262,3.48196676 11.5004262,3.48926274 11.5077221,3.48926274 C11.4931302,3.53303859 11.4858342,3.57681445 11.4858342,3.62788627 L11.4420584,8.2462388 C11.3034348,8.26083075 11.1648113,8.29001465 11.0261878,8.3337905 C10.0266391,8.66940538 9.47214496,9.74920976 9.74209606,10.7779423 L9.69102423,10.7779423 L1.00881332,10.7998302 C0.935853568,10.7925343 0.870189788,10.8144222 0.83370991,10.8290141 C0.651310522,10.8873819 0.512686986,11.0697813 0.490799059,11.2813646 L0.490799059,11.3105485 C0.505391011,11.5804996 0.724270277,11.7920829 0.986925397,11.7920829 L9.68372825,11.777491 C9.75668801,11.7847869 9.82235179,11.762899 9.85153569,11.755603 L9.85883166,11.755603 C9.97556727,11.7191232 10.063119,11.6388674 10.1214868,11.5367238 C10.5081735,12.0255541 11.0991475,12.3173932 11.7193054,12.3173932 C11.9308887,12.3173932 12.142472,12.2809133 12.3467593,12.2152495 C12.8501816,12.0474421 13.2587563,11.6826433 13.4922275,11.2011089 C13.7329947,10.7122785 13.7694746,10.1504884 13.5870752,9.63247415 C13.3900838,9.04879611 12.9596213,8.61103757 12.434311,8.39215831 L12.434311,8.37027038 L12.4634949,3.6205903 C12.4634949,3.57681445 12.456199,3.54033457 12.448903,3.50385469 L13.7986585,2.67940945 C13.9080981,2.61374567 13.9737619,2.50430604 13.9956498,2.37297848 C14.0102418,2.26353885 13.9883538,2.13950726 13.937282,2.0373636 C13.8351383,1.81118836 13.6016671,1.69445275 13.3973798,1.76741251 Z M11.9819605,11.179221 C11.7484893,11.2594767 11.5004262,11.2375888 11.2742509,11.1281491 C11.0480757,11.0114135 10.8802682,10.8144222 10.8000125,10.573655 C10.6322051,10.0775287 10.8948602,9.53762647 11.3763946,9.37711501 C11.4639463,9.3479311 11.558794,9.33333915 11.6536416,9.33333915 C12.0403284,9.33333915 12.4124231,9.5886983 12.5656386,9.98268098 C12.7261501,10.4788073 12.4634949,11.0187095 11.9819605,11.179221 Z" id="形状" fill="#7E98D6" fill-rule="nonzero"></path>
                            <path d="M9.41837535,0 C9.62612972,0 9.99316243,0.256564141 10.0000876,0.513128282 L10.0000876,0.513128282 L10.0000876,6.68417104 C10.0000876,7.3255814 9.84773438,7.85896474 9.53610283,8.26406602 C9.08596837,8.81095274 8.40730411,9 7.95716965,9 L7.95716965,9 L4.97935708,8.98649662 L0.671916573,8.95948987 C0.387985607,8.9459865 -0.0067476873,8.71642911 8.75778657e-05,8.3315829 L8.75778657e-05,8.3315829 L8.75778657e-05,0.506376594 C8.75778657e-05,0.290322581 0.22870726,0.0337584396 0.519563372,0.0337584396 L0.519563372,0.0337584396 L3.98213613,0.0405101275 C4.18989049,0.0405101275 4.4807466,0.189047262 4.4945969,0.55363841 L4.4945969,0.55363841 L4.50152204,2.35633908 C4.50152204,2.49812453 4.61924951,2.60615154 4.75775243,2.60615154 C4.92395592,2.60615154 5.13171028,2.59939985 5.29791378,2.59939985 C5.43641669,2.59939985 5.54721901,2.48462116 5.54721901,2.3495874 L5.54721901,2.3495874 L5.54721901,0.51987997 C5.5610693,0.155288822 5.85192542,0.0202550638 6.06660493,0 L6.06660493,0 Z M6.5768438,5.5 L3.42855317,5.55395683 C3.37266635,5.54316547 3.30436024,5.58633094 3.29194095,5.58633094 C3.13049015,5.67266187 3.01250687,5.95323741 3.00008758,6.27697842 L3.00008758,6.29856115 C3.01250687,6.68705036 3.19258661,6.98920863 3.42234352,7 L6.60168238,6.9676259 C6.63894026,6.9676259 6.69482708,6.94604317 6.73208495,6.91366906 C6.90595505,6.81654676 7.01151903,6.53597122 6.99909974,6.20143885 C6.98668045,5.81294964 6.80660071,5.51079137 6.5768438,5.5 Z" id="形状结合" fill="#2854BB" fill-rule="nonzero"></path>
                        </g>
                    </g>
                </g>
            </g>
        </g>
    </g>
</svg>