<?xml version="1.0" encoding="UTF-8"?>
<svg width="32px" height="32px" viewBox="0 0 32 32" version="1.1" xmlns="http://www.w3.org/2000/svg" xmlns:xlink="http://www.w3.org/1999/xlink">
    <title>部分签收-1</title>
    <defs>
        <filter color-interpolation-filters="auto" id="filter-1">
            <feColorMatrix in="SourceGraphic" type="matrix" values="0 0 0 0 0.788235 0 0 0 0 0.788235 0 0 0 0 0.788235 0 0 0 1.000000 0"></feColorMatrix>
        </filter>
    </defs>
    <g id="页面-1" stroke="none" stroke-width="1" fill="none" fill-rule="evenodd">
        <g id="设计规范" transform="translate(-448.000000, -2543.000000)">
            <g id="编组-16" transform="translate(340.000000, 2465.000000)">
                <g id="部分签收-1" transform="translate(108.000000, 78.000000)">
                    <rect id="矩形" fill-opacity="0.01" fill="#FFFFFF" x="0" y="0" width="32" height="32"></rect>
                    <path d="M16,2 C23.7319865,2 30,8.2680135 30,16 C30,23.7319865 23.7319865,30 16,30 C8.2680135,30 2,23.7319865 2,16 C2,8.2680135 8.2680135,2 16,2 Z M16,3 C8.82029825,3 3,8.82029825 3,16 C3,23.1797017 8.82029825,29 16,29 C23.1797017,29 29,23.1797017 29,16 C29,8.82029825 23.1797017,3 16,3 Z" id="矩形" fill="#C9C9C9" fill-rule="nonzero"></path>
                    <g filter="url(#filter-1)" id="编组-2">
                        <g transform="translate(9.000000, 9.000000)">
                            <path d="M4.52688307,6.74909136 L1.70021306,6.74909136 C0.762376238,6.74909136 0,5.98583782 0,5.04887831 L0,2.2222083 C0,1.28437148 0.763253541,0.521995237 1.70021306,0.521995237 L4.52688307,0.521995237 C5.46471989,0.521995237 6.22709613,1.28524878 6.22709613,2.2222083 L6.22709613,5.04887831 C6.22709613,5.98583782 5.46471989,6.74909136 4.52688307,6.74909136 Z" id="路径" fill="#FBAA4A" fill-rule="nonzero"></path>
                            <path d="M4.52688307,13.9587668 L1.70021306,13.9587668 C0.762376238,13.9587668 0,13.1955132 0,12.2585537 L0,9.43188369 C0,8.49404687 0.763253541,7.73167064 1.70021306,7.73167064 L4.52688307,7.73167064 C5.46471989,7.73167064 6.22709613,8.49492418 6.22709613,9.43188369 L6.22709613,12.2585537 C6.22709613,13.1955132 5.46471989,13.9587668 4.52688307,13.9587668 Z" id="路径" fill="#FBAA4A" fill-rule="nonzero"></path>
                            <path d="M11.7365585,13.9587668 L8.90988846,13.9587668 C7.97205164,13.9587668 7.2096754,13.1955132 7.2096754,12.2585537 L7.2096754,9.43188369 C7.2096754,8.49404687 7.97292894,7.73167064 8.90988846,7.73167064 L11.7365585,7.73167064 C12.6743953,7.73167064 13.4367715,8.49492418 13.4367715,9.43188369 L13.4367715,12.2585537 C13.4367715,13.1955132 12.6743953,13.9587668 11.7365585,13.9587668 Z" id="路径" fill="#FDD4A4" fill-rule="nonzero"></path>
                            <path d="M11.7374358,0.497430756 L13.5025692,2.26256423 C14.1658103,2.92580524 14.1658103,4.00401053 13.5025692,4.66725154 L11.7383131,6.43238501 C11.4194718,6.75152239 10.9866493,6.93052338 10.5355308,6.92981786 C10.1003885,6.92981786 9.66436897,6.76400551 9.33274846,6.43238501 L7.56761499,4.66725154 C6.90437398,4.00401053 6.90437398,2.92580524 7.56761499,2.26256423 L9.33274846,0.497430756 C9.99598947,-0.165810252 11.0750721,-0.165810252 11.7374358,0.497430756 Z M10.5355308,1.05188543 C10.3697205,1.05188543 10.2039103,1.11505201 10.0775786,1.24138363 L8.31244517,3.00651711 C8.05980609,3.25955337 8.05980609,3.66938509 8.31244517,3.92242136 L10.0775786,5.68755483 C10.3306149,5.94019391 10.7404466,5.94019391 10.9934829,5.68755483 L12.7586164,3.92242136 C13.0112554,3.66938509 13.0112554,3.25955337 12.7586164,3.00651711 L10.9934829,1.24138363 C10.8721165,1.11981587 10.707311,1.05162053 10.5355308,1.05188543 Z" id="形状结合" fill="#FBAA4A" fill-rule="nonzero"></path>
                        </g>
                    </g>
                </g>
            </g>
        </g>
    </g>
</svg>