<?xml version="1.0" encoding="UTF-8"?>
<svg width="32px" height="32px" viewBox="0 0 32 32" version="1.1" xmlns="http://www.w3.org/2000/svg" xmlns:xlink="http://www.w3.org/1999/xlink">
    <title>待接单-1</title>
    <defs>
        <filter color-interpolation-filters="auto" id="filter-1">
            <feColorMatrix in="SourceGraphic" type="matrix" values="0 0 0 0 0.788235 0 0 0 0 0.788235 0 0 0 0 0.788235 0 0 0 1.000000 0"></feColorMatrix>
        </filter>
    </defs>
    <g id="页面-1" stroke="none" stroke-width="1" fill="none" fill-rule="evenodd">
        <g id="设计规范" transform="translate(-718.000000, -2543.000000)">
            <g id="编组-16" transform="translate(340.000000, 2465.000000)">
                <g id="待接单-1" transform="translate(378.000000, 78.000000)">
                    <rect id="矩形" fill-opacity="0.01" fill="#FFFFFF" x="0" y="0" width="32" height="32"></rect>
                    <path d="M16,2 C23.7319865,2 30,8.2680135 30,16 C30,23.7319865 23.7319865,30 16,30 C8.2680135,30 2,23.7319865 2,16 C2,8.2680135 8.2680135,2 16,2 Z M16,3 C8.82029825,3 3,8.82029825 3,16 C3,23.1797017 8.82029825,29 16,29 C23.1797017,29 29,23.1797017 29,16 C29,8.82029825 23.1797017,3 16,3 Z" id="矩形" fill="#C9C9C9" fill-rule="nonzero"></path>
                    <g filter="url(#filter-1)" id="编组-9">
                        <g transform="translate(9.000000, 8.000000)">
                            <path d="M12.7348538,0.694637883 C12.7348538,0.311107242 12.4239206,0 12.0402159,0 L11.5111421,0 C11.2459958,0 10.9916435,0.145543175 10.8891017,0.39014624 C10.7289345,0.772284123 10.3523677,1.04073816 9.91208217,1.04073816 C9.47179666,1.04073816 9.09505571,0.772284123 8.93506267,0.39014624 C8.83252089,0.145543175 8.57816852,0.000174094708 8.31302228,0.000174094708 L7.96169916,0.000174094708 C7.69655292,0.000174094708 7.44220056,0.14571727 7.33965877,0.39014624 C7.17949164,0.772284123 6.80292479,1.04073816 6.36263928,1.04073816 C5.92235376,1.04073816 5.54561281,0.772284123 5.38561978,0.39014624 C5.28325209,0.14571727 5.02872563,0.000174094708 4.76357939,0.000174094708 L4.42635794,0.000174094708 C4.1612117,0.000174094708 3.90685933,0.14571727 3.80431755,0.39014624 C3.64415042,0.772284123 3.26758357,1.04073816 2.82729805,1.04073816 C2.38701253,1.04073816 2.01027159,0.772284123 1.85027855,0.39014624 C1.74791086,0.145543175 1.4933844,0 1.22823816,0 L0.694637883,0 C0.311107242,0 0,0.310933148 0,0.694637883 L0,3.81528552 L12.7345056,3.81528552 L12.7345056,0.694637883 L12.7348538,0.694637883 Z" id="路径" fill="#FDD4A4" fill-rule="nonzero"></path>
                            <path d="M12.7350279,5.27820334 L12.7350279,8.73495971 C12.7350279,8.98314616 12.4660515,9.14785318 12.2163997,9.05617056 C11.5976671,8.82889418 10.9004178,8.74589728 10.1697423,8.85865082 C8.52472145,9.11230606 7.21622563,10.385086 7.02419916,11.9157031 C6.89032033,12.9824384 7.27245822,13.9674636 7.96935933,14.6869309 C8.19202646,14.91662 8.03011838,15.2782033 7.69655292,15.2782033 L7.69655292,15.2782033 L0.637883008,15.2782033 C0.287778552,15.2782033 0.00121866295,15.0134497 0.00121866295,14.689987 L0.00121866295,14.689987 L0.00121866295,5.27820334 L12.7350279,5.27820334 Z M5.3553273,7.00243733 L2.30344708,7.00243733 C2.09139972,7.00243733 1.91939415,7.1742688 1.91939415,7.38649025 L1.91939415,7.38649025 L1.91939415,7.89171309 C1.91939415,8.10376045 2.09122563,8.27576602 2.30344708,8.27576602 L2.30344708,8.27576602 L5.3553273,8.27576602 C5.56737465,8.27576602 5.73938022,8.10393454 5.73938022,7.89171309 L5.73938022,7.89171309 L5.73938022,7.38649025 C5.73938022,7.1744429 5.56754875,7.00243733 5.3553273,7.00243733 L5.3553273,7.00243733 Z" id="形状结合" fill="#FBAA4A" fill-rule="nonzero"></path>
                            <path d="M11,9 C9.3431587,9 8,10.3431587 8,12 C8,13.6568413 9.3431587,15 11,15 C12.6568413,15 14,13.6568413 14,12 C14,10.3431587 12.6568413,9 11,9 Z M12.2255184,12.9137564 L11.9070923,13.2261255 C11.8072871,13.3241371 11.6446417,13.3246511 11.5439564,13.2274963 L10.3,12.025655 L10.3,10.5498267 C10.3,10.4117195 10.4149432,10.3 10.5568179,10.3 L11.0088457,10.3 C11.1507204,10.3 11.2656636,10.4118908 11.2656636,10.5498267 L11.2656636,11.6339513 L12.2241102,12.5602636 C12.3247955,12.6575898 12.3253236,12.8159162 12.2255184,12.9137564 L12.2255184,12.9137564 Z" id="形状" fill="#FDD4A4" fill-rule="nonzero"></path>
                        </g>
                    </g>
                </g>
            </g>
        </g>
    </g>
</svg>