<?xml version="1.0" encoding="UTF-8"?>
<svg width="32px" height="32px" viewBox="0 0 32 32" version="1.1" xmlns="http://www.w3.org/2000/svg" xmlns:xlink="http://www.w3.org/1999/xlink">
    <title>已接单-1</title>
    <defs>
        <filter color-interpolation-filters="auto" id="filter-1">
            <feColorMatrix in="SourceGraphic" type="matrix" values="0 0 0 0 0.788235 0 0 0 0 0.788235 0 0 0 0 0.788235 0 0 0 1.000000 0"></feColorMatrix>
        </filter>
    </defs>
    <g id="页面-1" stroke="none" stroke-width="1" fill="none" fill-rule="evenodd">
        <g id="设计规范" transform="translate(-664.000000, -2543.000000)">
            <g id="编组-16" transform="translate(340.000000, 2465.000000)">
                <g id="已接单-1" transform="translate(324.000000, 78.000000)">
                    <rect id="矩形" fill-opacity="0.01" fill="#FFFFFF" x="0" y="0" width="32" height="32"></rect>
                    <path d="M16,2 C23.7319865,2 30,8.2680135 30,16 C30,23.7319865 23.7319865,30 16,30 C8.2680135,30 2,23.7319865 2,16 C2,8.2680135 8.2680135,2 16,2 Z M16,3 C8.82029825,3 3,8.82029825 3,16 C3,23.1797017 8.82029825,29 16,29 C23.1797017,29 29,23.1797017 29,16 C29,8.82029825 23.1797017,3 16,3 Z" id="矩形" fill="#C9C9C9" fill-rule="nonzero"></path>
                    <g filter="url(#filter-1)" id="编组-8">
                        <g transform="translate(9.000000, 9.000000)">
                            <path d="M10.25,7.5 C12.321125,7.5 14,9.17887499 14,11.25 C14,13.321125 12.321125,15 10.25,15 C8.17887498,15 6.5,13.321125 6.5,11.25 C6.5,9.17887498 8.17887499,7.5 10.25,7.5 Z M12.3559602,9.47993282 L12.3181007,9.51743611 L10.337507,11.7205459 C10.2351814,11.8342633 10.0770545,11.8469027 9.96215687,11.7505485 L9.92970585,11.718879 L9.11915157,10.8054657 C8.94664078,10.6150777 8.67509303,10.6150777 8.50258224,10.8054657 C8.34393282,10.9829812 8.33311582,11.2638392 8.47085235,11.4555226 L8.50258224,11.4946927 L9.82478089,12.9823231 C9.98345576,13.1570995 10.2283688,13.1731575 10.4031301,13.0202431 L10.4413502,12.9827398 L12.93467,10.2074966 C13.0163018,10.1176047 13.0625,9.99298496 13.0625,9.8626747 C13.0625,9.73236443 13.0163018,9.60774465 12.93467,9.51785281 C12.7759404,9.34284326 12.5307894,9.32677973 12.3559602,9.47993282 Z" id="形状结合" fill="#87C0EC" fill-rule="nonzero"></path>
                            <path d="M10.8888889,0 C11.7479985,0 12.4444444,0.696445942 12.4444444,1.55555555 L12.4448333,7.23566667 C11.7356226,6.82530332 10.9304867,6.60983118 10.1111111,6.6111111 C7.53394443,6.6111111 5.44444443,8.7006111 5.44444443,11.2777778 C5.44444443,12.6715555 6.05538888,13.923 7.0245,14.7777778 L1.55555555,14.7777778 C0.696445942,14.7777778 0,14.0813318 0,13.2222222 L0,1.55555555 C0,0.696445942 0.696445942,0 1.55555555,0 L10.8888889,0 Z M8.75,3.5 L2.91666667,3.5 C2.60551042,3.50015413 2.3492494,3.74450342 2.33429627,4.0553002 C2.31934313,4.36609698 2.55096241,4.6339193 2.86066667,4.66394443 L2.91666667,4.66666667 L8.75,4.66666667 C9.0721661,4.66666667 9.33333333,4.40549944 9.33333333,4.08333333 C9.33333333,3.76116723 9.0721661,3.5 8.75,3.5 Z" id="形状结合" fill="#3696E0" fill-rule="nonzero"></path>
                        </g>
                    </g>
                </g>
            </g>
        </g>
    </g>
</svg>