<?xml version="1.0" encoding="UTF-8"?>
<svg width="32px" height="32px" viewBox="0 0 32 32" version="1.1" xmlns="http://www.w3.org/2000/svg" xmlns:xlink="http://www.w3.org/1999/xlink">
    <title>已签收-2</title>
    <defs>
        <filter color-interpolation-filters="auto" id="filter-1">
            <feColorMatrix in="SourceGraphic" type="matrix" values="0 0 0 0 1.000000 0 0 0 0 1.000000 0 0 0 0 1.000000 0 0 0 1.000000 0"></feColorMatrix>
        </filter>
    </defs>
    <g id="页面-1" stroke="none" stroke-width="1" fill="none" fill-rule="evenodd">
        <g id="设计规范" transform="translate(-394.000000, -2465.000000)">
            <g id="编组-16" transform="translate(340.000000, 2465.000000)">
                <g id="已签收-2" transform="translate(54.000000, 0.000000)">
                    <rect id="矩形" fill-opacity="0.01" fill="#FFFFFF" x="0" y="0" width="32" height="32"></rect>
                    <rect id="矩形" fill="#307EFF" x="2" y="2" width="28" height="28" rx="14"></rect>
                    <g filter="url(#filter-1)" id="编组-6">
                        <g transform="translate(9.000000, 9.000000)">
                            <path d="M13.6971154,1.06514423 L13.6971154,3.23076923 L0,3.23076923 L0,1.06514423 C0,0.477884615 0.482932692,0 1.07524038,0 L12.6201923,0 C13.2141827,0 13.6971154,0.477884615 13.6971154,1.06514423 Z" id="路径" fill="#99E3C2" fill-rule="nonzero"></path>
                            <path d="M13.6852071,3.18934911 L13.6860713,7.84416925 C12.929637,7.02731478 11.8482957,6.51507867 10.6493637,6.51507867 C8.37124587,6.51507867 6.51507867,8.37124587 6.51507867,10.6514423 C6.51507867,11.818468 7.00129931,12.8744197 7.78145834,13.627294 L2,13.6272189 C0.8954305,13.6272189 1.3527075e-16,12.7317884 0,11.6272189 L0,3.18934911 L13.6852071,3.18934911 Z M6.22238981,9.84316449 L4.79755321,9.84316449 L4.79755321,11.2375 L5.91302162,11.2375 C5.95877325,10.7538399 6.06334842,10.2854303 6.22238981,9.84316449 L6.22238981,9.84316449 Z M3.4032177,9.82573529 L2.00888219,9.82573529 L2.00888219,11.2200708 L3.4032177,11.2200708 L3.4032177,9.82573529 Z M8.37053796,7.05449346 L4.79755321,7.05449346 L4.79755321,8.44882898 L6.95223731,8.44882898 C7.34003687,7.90634532 7.82151835,7.43357843 8.37053796,7.05449346 L8.37053796,7.05449346 Z M3.4032177,7.03706427 L2.00888219,7.03706427 L2.00888219,8.43139978 L3.4032177,8.43139978 L3.4032177,7.03706427 Z M11.7692308,4.25492919 L4.79755321,4.25492919 L4.79755321,5.64926471 L11.7692308,5.64926471 L11.7692308,4.25492919 Z M3.4032177,4.2375 L2.00888219,4.2375 L2.00888219,5.63183551 L3.4032177,5.63183551 L3.4032177,4.2375 Z" id="形状结合" fill="#1CC177"></path>
                            <path d="M10.6497596,7.30288462 C12.4973558,7.30288462 14,8.80552885 14,10.6514423 C14,12.4973558 12.4973558,14 10.6497596,14 C8.80552885,14 7.30288462,12.4973558 7.30288462,10.6514423 C7.30288462,8.80552885 8.80552885,7.30288462 10.6497596,7.30288462 Z M12.5807652,9.11063935 C12.3711366,8.96529915 12.0812196,8.98593962 11.8943853,9.17263095 L11.8943853,9.17263095 L10.0759615,10.9896635 L9.4083536,10.3220555 C9.40821353,10.3219155 9.40807338,10.3217755 9.40793316,10.3216355 L9.33338006,10.2594874 C9.12361577,10.1145147 8.83384072,10.1355784 8.64735577,10.322476 C8.43403604,10.5362676 8.43059264,10.8813159 8.63959284,11.0993322 C8.89890763,11.3698078 9.21181709,11.687957 9.57832122,12.0537799 L9.57832122,12.0537799 L9.66223337,12.1250362 C9.92674612,12.3150401 10.2973955,12.2911608 10.5352341,12.0534878 L10.5352341,12.0534878 L12.6549996,9.93492796 C12.86537,9.72467732 12.8656068,9.38373986 12.6555288,9.17319712 L12.6555288,9.17319712 Z" id="形状结合" fill="#77DAAD" fill-rule="nonzero"></path>
                        </g>
                    </g>
                </g>
            </g>
        </g>
    </g>
</svg>