<?xml version="1.0" encoding="UTF-8"?>
<svg width="32px" height="32px" viewBox="0 0 32 32" version="1.1" xmlns="http://www.w3.org/2000/svg" xmlns:xlink="http://www.w3.org/1999/xlink">
    <title>收货地址-2</title>
    <defs>
        <filter color-interpolation-filters="auto" id="filter-1">
            <feColorMatrix in="SourceGraphic" type="matrix" values="0 0 0 0 1.000000 0 0 0 0 1.000000 0 0 0 0 1.000000 0 0 0 1.000000 0"></feColorMatrix>
        </filter>
    </defs>
    <g id="页面-1" stroke="none" stroke-width="1" fill="none" fill-rule="evenodd">
        <g id="设计规范" transform="translate(-340.000000, -2465.000000)">
            <g id="收货地址-2" transform="translate(340.000000, 2465.000000)">
                <rect id="矩形" fill-opacity="0.01" fill="#FFFFFF" x="0" y="0" width="32" height="32"></rect>
                <circle id="椭圆形" fill="#30C992" cx="16" cy="16" r="14"></circle>
                <g filter="url(#filter-1)" id="dizhi">
                    <g transform="translate(10.000000, 9.000000)">
                        <path d="M5.60078006,0 C8.68959753,0 11.201575,2.5418102 11.201575,5.66609913 C11.2067381,7.07017127 10.6778144,8.423682 9.72200373,9.45221084 L6.52117112,13.5454307 C6.30165703,13.8307283 5.96257981,13.9985206 5.60260893,14 C5.24263806,14.0014412 4.90221062,13.8364056 4.680389,13.5528984 L1.41514769,9.42234013 C0.50058562,8.38507013 -0.00277436265,7.04897476 1.1502187e-05,5.66609913 C1.1502187e-05,2.5418102 2.5119626,0 5.60078006,0 Z M8.45156536,5.47007263 C8.45156536,3.89625993 7.17832661,2.61462004 5.6138485,2.61462004 C4.85867977,2.61462004 4.14738363,2.91426054 3.6134448,3.45660051 C3.0793441,3.99623201 2.78122056,4.72576182 2.78450546,5.48500799 C2.79013353,7.05882069 4.06337228,8.34143181 5.62131617,8.34143181 C6.37504938,8.34533227 7.09767471,8.04117545 7.62171987,7.49941357 C8.15659216,6.95800707 8.45156536,6.23644288 8.45156536,5.47100609 L8.45156536,5.47007263 Z M7.24740261,5.47007263 C7.24740261,5.91253243 7.0793799,6.32512153 6.77413865,6.63503008 C6.4714408,6.9463642 6.05554505,7.12181496 5.62131617,7.12136335 C4.7195943,7.12136335 3.98776206,6.38392948 3.98776206,5.47847377 C3.98776206,5.03694743 4.15578477,4.62342487 4.46009256,4.31444978 C4.77746879,4.00080739 5.18819097,3.82811738 5.62131617,3.82811738 C6.05724176,3.82811738 6.46609701,3.99800701 6.77413865,4.30978248 C7.08218028,4.6206245 7.25206991,5.03321359 7.24833607,5.47100609 L7.24740261,5.47007263 Z" id="形状" fill="#333333" fill-rule="nonzero"></path>
                    </g>
                </g>
            </g>
        </g>
    </g>
</svg>