<?xml version="1.0" encoding="UTF-8"?>
<svg width="32px" height="32px" viewBox="0 0 32 32" version="1.1" xmlns="http://www.w3.org/2000/svg" xmlns:xlink="http://www.w3.org/1999/xlink">
    <title>延缓签收-1</title>
    <defs>
        <filter color-interpolation-filters="auto" id="filter-1">
            <feColorMatrix in="SourceGraphic" type="matrix" values="0 0 0 0 0.788235 0 0 0 0 0.788235 0 0 0 0 0.788235 0 0 0 1.000000 0"></feColorMatrix>
        </filter>
    </defs>
    <g id="页面-1" stroke="none" stroke-width="1" fill="none" fill-rule="evenodd">
        <g id="设计规范" transform="translate(-502.000000, -2543.000000)">
            <g id="编组-16" transform="translate(340.000000, 2465.000000)">
                <g id="延缓签收-1" transform="translate(162.000000, 78.000000)">
                    <rect id="矩形" fill-opacity="0.01" fill="#FFFFFF" x="0" y="0" width="32" height="32"></rect>
                    <path d="M16,2 C23.7319865,2 30,8.2680135 30,16 C30,23.7319865 23.7319865,30 16,30 C8.2680135,30 2,23.7319865 2,16 C2,8.2680135 8.2680135,2 16,2 Z M16,3 C8.82029825,3 3,8.82029825 3,16 C3,23.1797017 8.82029825,29 16,29 C23.1797017,29 29,23.1797017 29,16 C29,8.82029825 23.1797017,3 16,3 Z" id="矩形" fill="#C9C9C9" fill-rule="nonzero"></path>
                    <g filter="url(#filter-1)" id="编组-10">
                        <g transform="translate(9.000000, 9.000000)">
                            <path d="M9.09090909,9.09494702e-13 C10.7477633,9.09190343e-13 12.0909091,1.34314575 12.0909091,3 L12.0913443,5.80282225 C11.5073456,5.54940799 10.8617636,5.40909091 10.1818182,5.40909091 C7.53512396,5.40909091 5.40909091,7.53512396 5.40909091,10.1818182 C5.40909091,11.7477331 6.15330653,13.1313911 7.30925527,14.0003097 L3,14 C1.34314575,14 -6.85272294e-16,12.6568542 0,11 L0,3 C-6.46995335e-16,1.34314575 1.34314575,9.09799061e-13 3,9.09494702e-13 L9.09090909,9.09494702e-13 Z" id="形状结合" fill="#FDD4A4"></path>
                            <path d="M9.09090909,9.09494702e-13 C10.7477633,9.0771876e-13 12.0909091,1.34314575 12.0909091,3 L12.0913443,5.80282225 C11.5073456,5.54940799 10.8617636,5.40909091 10.1818182,5.40909091 C7.53512396,5.40909091 5.40909091,7.53512396 5.40909091,10.1818182 C5.40909091,10.6230555 5.46817996,11.0498221 5.57891964,11.4546795 L3,11.4545455 C1.34314575,11.4545455 -6.85272294e-16,10.1113997 0,8.45454545 L0,3 C-2.02906125e-16,1.34314575 1.34314575,9.09799061e-13 3,9.09494702e-13 L9.09090909,9.09494702e-13 Z" id="形状结合" fill="#FBAA4A"></path>
                            <path d="M10.1818182,6.36363636 C12.2991736,6.36363636 14,8.06446281 14,10.1818182 C14,12.2991736 12.2991736,14 10.1818182,14 C8.06446281,14 6.36363636,12.2991736 6.36363636,10.1818182 C6.36363636,8.06446281 8.06446281,6.36363636 10.1818182,6.36363636 Z M10.1818182,7.97190083 C9.9206183,7.97190083 9.70743801,8.18508111 9.70743801,8.44628099 L9.70743801,10.1818182 C9.70743801,10.3001675 9.75402733,10.4199686 9.83149219,10.4974334 L11.0405811,11.8796774 C11.1286165,11.9899196 11.2501909,12.0446281 11.3966942,12.0446281 C11.5174383,12.0446281 11.6184213,11.9971067 11.7123095,11.9032185 L11.7588941,11.8556244 C11.9005436,11.6863793 11.9051967,11.4176224 11.7528073,11.2434631 L10.6559091,9.99472727 L10.6561984,8.44628099 C10.6561984,8.18508112 10.4430181,7.97190083 10.1818182,7.97190083 Z" id="形状结合" fill="#FDD4A4" fill-rule="nonzero"></path>
                            <path d="M7.36718672,0 L7.36718672,4.3237981 C7.36718672,4.59994047 7.14332909,4.8237981 6.86718672,4.8237981 C6.75903989,4.8237981 6.65380823,4.78873396 6.56727625,4.72386523 L5.13735915,3.65192738 L5.13735915,3.65192738 L3.70913569,4.72334484 C3.48824034,4.889055 3.17483466,4.84431856 3.0091245,4.62342321 C2.94419225,4.53686707 2.90909091,4.43158269 2.90909091,4.32337843 L2.90909091,0 L2.90909091,0 L3.90705569,0 L3.90705569,0.00467795992 L6.36922193,0.00467795992 L6.36922193,0 L7.36718672,0 Z" id="路径" fill="#FDD4A4" fill-rule="nonzero"></path>
                        </g>
                    </g>
                </g>
            </g>
        </g>
    </g>
</svg>