<?xml version="1.0" encoding="UTF-8"?>
<svg width="16px" height="16px" viewBox="0 0 16 16" version="1.1" xmlns="http://www.w3.org/2000/svg" xmlns:xlink="http://www.w3.org/1999/xlink">
    <title>筛选</title>
    <g id="页面-1" stroke="none" stroke-width="1" fill="none" fill-rule="evenodd">
        <g id="查物流" transform="translate(-337.000000, -154.000000)">
            <g id="范围栏" transform="translate(0.000000, 140.000000)">
                <g id="筛选" transform="translate(337.000000, 14.000000)">
                    <rect id="矩形" fill-opacity="0.01" fill="#FFFFFF" x="0" y="0" width="16" height="16"></rect>
                    <path d="M14.217386,7.12667349 L6.67998522,7.12667349 C6.36767905,6.42411523 5.65836054,5.96958624 4.87428431,5.96958624 C4.09020807,5.96958624 3.38088956,6.42411523 3.06858339,7.12667349 L1.78347596,7.12667349 C1.35252109,7.12667349 1,7.12667349 1,7.89118454 C1,8.6556956 1.35165918,8.65737954 1.78347596,8.65737954 L3.06858339,8.65737954 C3.38088956,9.35993781 4.09020807,9.81446679 4.87428431,9.81446679 C5.65836054,9.81446679 6.36767905,9.35993781 6.67998522,8.65737954 L14.217386,8.65737954 C14.6483408,8.65737954 15,8.65737954 15,7.89202652 C15,7.12667349 14.6483408,7.12667349 14.217386,7.12667349 Z M1.78347596,4.1721919 L9.74148864,4.1721919 C10.0499671,4.88354398 10.7641062,5.34565217 11.5549467,5.34565217 C12.3457873,5.34565217 13.0599264,4.88354398 13.3684049,4.1721919 L14.217386,4.1721919 C14.6483408,4.1721919 15,4.1721919 15,3.40683888 C15,2.64148585 14.6483408,2.64232782 14.217386,2.64232782 L13.3554762,2.64232782 C13.0400999,1.94776717 12.3353458,1.5 11.5575325,1.5 C10.7797191,1.5 10.0749651,1.94776717 9.75958875,2.64232782 L1.78347596,2.64232782 C1.35252109,2.64232782 1,2.64232782 1,3.40683888 C1,4.17134993 1.35165918,4.1721919 1.78347596,4.1721919 Z M14.217386,11.646382 L11.8738534,11.646382 C11.5615472,10.9438237 10.8522287,10.4892948 10.0681524,10.4892948 C9.2840762,10.4892948 8.57475769,10.9438237 8.26245152,11.646382 L1.78347596,11.646382 C1.35252109,11.646382 1,11.646382 1,12.4108931 C1,13.1754041 1.35165918,13.1762461 1.78347596,13.1762461 L8.26245152,13.1762461 C8.57475769,13.8788043 9.2840762,14.3333333 10.0681524,14.3333333 C10.8522287,14.3333333 11.5615472,13.8788043 11.8738534,13.1762461 L14.217386,13.1762461 C14.6483408,13.1762461 15,13.1762461 15,12.4108931 C15,11.64554 14.6483408,11.646382 14.217386,11.646382 Z" id="形状" fill="#4D4D4D" fill-rule="nonzero"></path>
                </g>
            </g>
        </g>
    </g>
</svg>