<?xml version="1.0" encoding="UTF-8"?>
<svg width="20px" height="20px" viewBox="0 0 20 20" version="1.1" xmlns="http://www.w3.org/2000/svg" xmlns:xlink="http://www.w3.org/1999/xlink">
    <title>电话</title>
    <g id="页面-1" stroke="none" stroke-width="1" fill="none" fill-rule="evenodd">
        <g id="运单详情-2-上滑" transform="translate(-185.000000, -333.000000)">
            <g id="底部信息" transform="translate(0.000000, 212.000000)">
                <g id="电话" transform="translate(185.000000, 121.000000)">
                    <rect id="矩形" fill-opacity="0.01" fill="#FFFFFF" x="0" y="0" width="20" height="20"></rect>
                    <path d="M15.7562163,14.8244619 C16.2491939,13.9694941 15.9761358,13.3128445 15.1031129,12.6558265 C14.0768416,11.8834373 13.0738784,11.363898 12.3527139,12.1961247 C12.3527139,12.1961247 11.587388,13.1040472 9.33520209,10.9794204 C6.71628148,8.49159793 7.81542063,7.60926105 7.81542063,7.60926105 C8.72626016,6.69672542 8.14726692,6.01596406 7.38336085,4.98494736 C6.61951394,3.95394541 5.84788776,3.62762505 4.74012634,4.5143392 C2.60545759,6.22314012 5.61547112,10.2354465 7.1373379,11.7955823 L7.13727874,11.7957003 C7.13727874,11.7957003 9.45152133,14.18118 10.9078263,14.9753083 L11.6868916,15.4094245 C12.804281,15.9808425 14.0593752,16.2424176 14.9429873,15.7118098 C14.9429873,15.7118393 15.3689242,15.4935064 15.7562163,14.8244619 Z" id="路径" fill="#307EFF" fill-rule="nonzero"></path>
                </g>
            </g>
        </g>
    </g>
</svg>