<?xml version="1.0" encoding="UTF-8"?>
<svg width="16px" height="16px" viewBox="0 0 16 16" version="1.1" xmlns="http://www.w3.org/2000/svg" xmlns:xlink="http://www.w3.org/1999/xlink">
    <title>运输中</title>
    <defs>
        <filter color-interpolation-filters="auto" id="filter-1">
            <feColorMatrix in="SourceGraphic" type="matrix" values="0 0 0 0 0.788235 0 0 0 0 0.788235 0 0 0 0 0.788235 0 0 0 1.000000 0"></feColorMatrix>
        </filter>
    </defs>
    <g id="页面-1" stroke="none" stroke-width="1" fill="none" fill-rule="evenodd">
        <g id="运单详情-3-滑到顶" transform="translate(-22.000000, -592.000000)">
            <g id="编组" transform="translate(0.000000, 300.000000)">
                <g id="编组-14" transform="translate(16.000000, 69.000000)">
                    <g id="运输中" transform="translate(6.000000, 223.000000)">
                        <rect id="矩形" fill-opacity="0.01" fill="#FFFFFF" x="0" y="0" width="16" height="16"></rect>
                        <g filter="url(#filter-1)" id="编组-7">
                            <g transform="translate(1.000000, 1.000000)">
                                <path d="M10.75,2.5 C12.1875,2.5 12.1640625,2.9140625 12.75,3.75 L14,5.84375 L14,9.5 C14,10.2210312 13.7399531,10.6820156 13.2200625,10.8831719 C13.0448906,9.81503125 12.1177031,9 11,9 C9.841875,9 8.88828125,9.87503125 8.76389062,11 L8.57973409,11 L8.57973409,2.5 L10.75,2.5 Z M10.5,4.25 C10.2238594,4.25 10,4.47385937 10,4.75 L10,6.5 C10,6.77614062 10.2238594,7 10.5,7 L12,7 C12.2761406,7 12.5,6.77614062 12.5,6.5 C12.5,6.22385937 12.2761406,6 12,6 L11,6 L11,4.75 C11,4.47385937 10.7761406,4.25 10.5,4.25 Z" id="形状结合" fill="#CAAFFA" fill-rule="nonzero"></path>
                                <path d="M6.25,0 C7.3545625,0 7.90535587,0.8954375 7.90535587,2 L7.90535587,11 L5.98610937,11 C5.86171875,9.87503125 4.908125,9 3.75,9 C2.6118125,9 1.6711875,9.84517187 1.5210625,10.942125 C0.6478125,10.7275 0,9.93946875 0,9 L0,2 C0,0.8954375 0.8954375,0 2,0 L6.25,0 Z M4.07692308,7.05769231 L2.07692308,7.05769231 C1.8007807,7.05769231 1.57692308,7.28154993 1.57692308,7.55769231 L1.57692308,7.55769231 L1.57692308,7.85769231 C1.57692308,8.13383468 1.8007807,8.35769231 2.07692308,8.35769231 L2.07692308,8.35769231 L4.07692308,8.35769231 C4.35306545,8.35769231 4.57692308,8.13383468 4.57692308,7.85769231 L4.57692308,7.85769231 L4.57692308,7.55769231 C4.57692308,7.28154993 4.35306545,7.05769231 4.07692308,7.05769231 L4.07692308,7.05769231 Z M4.61538462,4.71153846 L1.84615385,4.71153846 C1.57001147,4.71153846 1.34615385,4.93539609 1.34615385,5.21153846 L1.34615385,5.21153846 L1.34615385,5.51153846 C1.34615385,5.78768084 1.57001147,6.01153846 1.84615385,6.01153846 L1.84615385,6.01153846 L4.61538462,6.01153846 C4.89152699,6.01153846 5.11538462,5.78768084 5.11538462,5.51153846 L5.11538462,5.51153846 L5.11538462,5.21153846 C5.11538462,4.93539609 4.89152699,4.71153846 4.61538462,4.71153846 L4.61538462,4.71153846 Z M5.69230769,2.36538462 L2.92307692,2.36538462 C2.64693455,2.36538462 2.42307692,2.58924224 2.42307692,2.86538462 L2.42307692,2.86538462 L2.42307692,3.16538462 C2.42307692,3.44152699 2.64693455,3.66538462 2.92307692,3.66538462 L2.92307692,3.66538462 L5.69230769,3.66538462 C5.96845007,3.66538462 6.19230769,3.44152699 6.19230769,3.16538462 L6.19230769,3.16538462 L6.19230769,2.86538462 C6.19230769,2.58924224 5.96845007,2.36538462 5.69230769,2.36538462 L5.69230769,2.36538462 Z" id="形状结合" fill="#955FF6" fill-rule="nonzero"></path>
                                <path d="M3.7,10 C4.52842857,10 5.2,10.6715714 5.2,11.5 C5.2,12.3284286 4.52842857,13 3.7,13 C2.87157143,13 2.2,12.3284286 2.2,11.5 C2.2,10.6715714 2.87157143,10 3.7,10 Z" id="路径" fill="#955FF6" fill-rule="nonzero"></path>
                                <path d="M11,10 C11.8284286,10 12.5,10.6715714 12.5,11.5 C12.5,12.3284286 11.8284286,13 11,13 C10.1715714,13 9.5,12.3284286 9.5,11.5 C9.5,10.6715714 10.1715714,10 11,10 Z" id="路径" fill="#955FF6" fill-rule="nonzero"></path>
                            </g>
                        </g>
                    </g>
                </g>
            </g>
        </g>
    </g>
</svg>