<?xml version="1.0" encoding="UTF-8"?>
<svg width="25px" height="24px" viewBox="0 0 25 24" version="1.1" xmlns="http://www.w3.org/2000/svg" xmlns:xlink="http://www.w3.org/1999/xlink">
    <title>我的-未选</title>
    <g id="页面-1" stroke="none" stroke-width="1" fill="none" fill-rule="evenodd">
        <g id="查物流" transform="translate(-256.000000, -1147.000000)">
            <g id="标签栏" transform="translate(0.000000, 1137.000000)">
                <g id="我的-未选" transform="translate(256.500000, 10.000000)">
                    <rect id="矩形备份" fill-opacity="0.01" fill="#FFFFFF" x="0" y="0" width="24" height="24"></rect>
                    <g id="wodexiao" transform="translate(3.000000, 2.000000)" fill-rule="nonzero" stroke="#565656" stroke-width="2">
                        <path d="M9.16884751,14.3333333 C13.2172303,14.3333333 15.3306079,15.4832501 16.373299,16.7460367 C16.6652286,17.6157755 16.8441061,18.2549861 16.9328745,18.7243382 L16.948,18.812 L1.06715464,18.9974138 C1.44673038,17.6290406 1.56711063,17.307309 1.71671586,17.0764206 L1.74197012,17.0386164 C2.94098424,15.5283475 5.0518213,14.3333333 9.16884751,14.3333333 Z" id="路径"></path>
                        <path d="M13.9996808,1 L13.9996808,5.83333334 C13.9996808,7.16802148 13.4586916,8.37635482 12.5840303,9.25101611 C11.709369,10.1256774 10.5010357,10.6666667 9.16634751,10.6666667 C7.83165936,10.6666667 6.62332603,10.1256774 5.74866473,9.2510161 C4.87400343,8.37635481 4.33301417,7.16802148 4.33301417,5.83333334 C4.33301417,4.49864519 4.87400344,3.29031186 5.74866473,2.41565056 C6.62332603,1.54098926 7.83165937,1 9.16634751,1 L9.16634751,1 L13.9996808,1 Z" id="路径"></path>
                    </g>
                </g>
            </g>
        </g>
    </g>
</svg>