<?xml version="1.0" encoding="UTF-8"?>
<svg width="375px" height="210px" viewBox="0 0 375 210" version="1.1" xmlns="http://www.w3.org/2000/svg" xmlns:xlink="http://www.w3.org/1999/xlink">
    <title>图</title>
    <defs>
        <rect id="path-1" x="0" y="0" width="375" height="210"></rect>
    </defs>
    <g id="页面-1" stroke="none" stroke-width="1" fill="none" fill-rule="evenodd">
        <g id="图">
            <mask id="mask-2" fill="white">
                <use xlink:href="#path-1"></use>
            </mask>
            <use id="蒙版" fill="#FBFDFF" xlink:href="#path-1"></use>
            <path d="M230.929225,-14 C250.678552,5.7811877 249.638197,22.7291649 227.808161,36.8439315 C205.978125,50.9586982 126.708738,97.3440544 -10,176 L-10,-5.13508452 L230.929225,-14 Z" id="路径-2" fill="#7DAEFF" opacity="0.098169236" mask="url(#mask-2)"></path>
            <path d="M27.5443343,210 L171.404156,123.089116 C187.192849,117.981694 195.087195,122.418613 195.087195,136.399874 C195.087195,157.371765 201.172079,180.034686 225.203721,167.529857 C241.224816,159.193304 291.823576,130.045553 377,80.0866032 L377,0 L-0.236653425,0 L-1.06636922e-13,210 L27.5443343,210 Z" id="路径-3" fill="#7DAEFF" opacity="0.098169236" mask="url(#mask-2)"></path>
            <path d="M207.590594,210 L346.5499,124.402082 C358,112.472221 360.862525,100.418346 355.137475,88.2404555 C349.412425,76.0625655 336.961189,72.5081646 317.783767,77.5772527 C285.091705,85.2334837 264.523871,85.2334837 256.080266,77.5772527 C243.414859,66.0929064 236.976023,32.521946 271.665259,19.3696091 C294.791416,10.6013846 302.640152,0.811514872 295.211467,-10 L-2.27373675e-13,-10 L-2.27373675e-13,210 L207.590594,210 Z" id="路径-5" fill="#7DAEFF" opacity="0.098169236" mask="url(#mask-2)"></path>
            <path d="M319.456311,40.6019417 L454.485437,40.6019417 C459.986836,40.6019417 464.446602,45.0617072 464.446602,50.5631068 C464.446602,56.0645063 459.986836,60.5242718 454.485437,60.5242718 L319.456311,60.5242718 C313.954911,60.5242718 309.495146,56.0645063 309.495146,50.5631068 C309.495146,45.0617072 313.954911,40.6019417 319.456311,40.6019417 Z" id="矩形" fill="#7DAEFF" opacity="0.098169236" mask="url(#mask-2)" transform="translate(386.970874, 50.563107) rotate(-30.000000) translate(-386.970874, -50.563107) "></path>
            <path d="M339.626709,146.145513 L394.638575,146.145513 C396.879886,146.145513 398.696827,147.962455 398.696827,150.203766 C398.696827,152.445077 396.879886,154.262018 394.638575,154.262018 L339.626709,154.262018 C337.385398,154.262018 335.568456,152.445077 335.568456,150.203766 C335.568456,147.962455 337.385398,146.145513 339.626709,146.145513 Z" id="矩形" fill="#7DAEFF" opacity="0.098169236" mask="url(#mask-2)" transform="translate(367.132642, 150.203766) rotate(-30.000000) translate(-367.132642, -150.203766) "></path>
        </g>
    </g>
</svg>